<?xml version="1.0" standalone="no"?>
<!DOCTYPE svg PUBLIC "-//W3C//DTD SVG 1.1//EN" "http://www.w3.org/Graphics/SVG/1.1/DTD/svg11.dtd" >
<svg xmlns="http://www.w3.org/2000/svg" xmlns:xlink="http://www.w3.org/1999/xlink" version="1.1">
<metadata></metadata>
<defs>
<font id="futura_pl_condensed_boldRg" horiz-adv-x="887" >
<font-face units-per-em="2048" ascent="1529" descent="-519" />
<missing-glyph horiz-adv-x="382" />
<glyph horiz-adv-x="0" />
<glyph unicode="&#xd;" horiz-adv-x="382" />
<glyph unicode=" "  horiz-adv-x="382" />
<glyph unicode="&#x09;" horiz-adv-x="382" />
<glyph unicode="&#xa0;" horiz-adv-x="382" />
<glyph unicode="!" horiz-adv-x="591" d="M123 151q0 73 50.5 122t124.5 49q72 0 121 -50t49 -122q0 -73 -49.5 -123t-122.5 -50t-123 50.5t-50 123.5zM162 410v955h268v-955h-268z" />
<glyph unicode="&#x22;" horiz-adv-x="830" d="M85 1365h284l-48 -549h-189zM461 1365h284l-48 -549h-189z" />
<glyph unicode="#" d="M11 611h172l21 168h-146v188h169l49 398h195l-49 -398h109l50 398h196l-49 -398h141l2 -188h-167l-20 -168h144v-187h-167l-52 -424h-196l51 424h-109l-52 -424h-195l52 424h-147zM378 611h110l20 168h-110z" />
<glyph unicode="$" d="M47 996q0 320 344 380v129h132v-129q187 -34 292 -159l-150 -163q-98 104 -207 104q-153 0 -153 -141q0 -103 142 -161q107 -44 137 -58q74 -35 128 -76q155 -116 155 -316q0 -163 -92 -279q-93 -119 -252 -149v-155h-132v155q-212 31 -341 160l127 200 q145 -136 265 -136q79 0 125.5 47t46.5 126q0 71 -53 120q-34 32 -118 69q-184 83 -270 150q-126 99 -126 282z" />
<glyph unicode="%" horiz-adv-x="1552" d="M68 976q0 389 284 392q285 3 285 -397q0 -151 -50 -250q-70 -138 -235 -138q-284 0 -284 393zM292 977q0 -186 63 -186q66 0 66 183q0 188 -65 189q-64 0 -64 -186zM377 49l622 1297l159 -73l-620 -1297zM915 377q0 388 284 392q285 4 285 -397q0 -150 -50 -249 q-70 -138 -235 -138q-284 0 -284 392zM1139 380q0 -187 65 -187q64 0 64 184q0 189 -64 189q-65 1 -65 -186z" />
<glyph unicode="&#x26;" horiz-adv-x="1103" d="M89 384q0 213 197 362q-97 166 -97 287q0 148 119 235q81 59 201 59q166 0 252 -104q61 -73 61 -170q0 -108 -68 -206q-47 -68 -152 -161l174 -263q96 79 144 141l142 -203q-66 -78 -150 -143l143 -218h-286l-53 80q-121 -99 -251 -99q-164 0 -272 121q-104 116 -104 282 zM351 404q0 -67 43 -115t109 -48q36 0 84 33l-172 263q-64 -54 -64 -133zM423 1036q0 -40 58 -137q95 60 95 144q0 75 -72 75q-81 0 -81 -82z" />
<glyph unicode="'" horiz-adv-x="454" d="M85 1365h284l-48 -549h-188z" />
<glyph unicode="(" horiz-adv-x="629" d="M109 541q0 506 201 947l251 -57q-182 -450 -182 -891q0 -415 182 -867l-251 -62q-201 461 -201 930z" />
<glyph unicode=")" horiz-adv-x="629" d="M68 -332q182 448 182 891q0 416 -182 867l251 62q201 -461 201 -929q0 -506 -201 -948z" />
<glyph unicode="*" horiz-adv-x="888" d="M134 1191l35 109l227 -79l-6 240h115l-5 -240l226 79l36 -109l-230 -69l145 -190l-93 -68l-136 197l-137 -197l-93 68l146 190z" />
<glyph unicode="+" horiz-adv-x="888" d="M68 578v236h247v262h257v-262h247v-236h-247v-264h-257v264h-247z" />
<glyph unicode="," horiz-adv-x="512" d="M14 -261l181 555h272l-272 -555h-181z" />
<glyph unicode="-" horiz-adv-x="344" d="M0 452v242h344v-242h-344z" />
<glyph unicode="." horiz-adv-x="512" d="M83 150q0 74 50.5 123t125.5 49q71 0 120.5 -51t49.5 -122q0 -73 -50 -123t-123 -50t-123 50.5t-50 123.5z" />
<glyph unicode="/" horiz-adv-x="949" d="M-25 -375l742 1836h222l-734 -1836h-230z" />
<glyph unicode="0" d="M61 693q0 260 70 439q99 254 320 255q200 1 298 -234q78 -187 78 -480q0 -259 -69 -439q-98 -256 -317 -256q-224 0 -318 266q-62 175 -62 449zM322 686q0 -282 38 -382q29 -77 84 -77q121 0 121 449q0 290 -38 391q-29 77 -83 77q-86 1 -112 -200q-10 -77 -10 -258z" />
<glyph unicode="1" horiz-adv-x="888" d="M212 1129v236h394v-1365h-264v1129h-130z" />
<glyph unicode="2" d="M74 0l317 584q166 306 166 442q0 171 -107 171q-111 0 -111 -226q0 -29 3 -81h-249q-2 43 -2 75q0 149 39 249q68 173 317 173q367 0 367 -350q0 -125 -63 -269q-2 -5 -79 -152l-199 -381h317v-235h-716z" />
<glyph unicode="3" d="M62 359h254q-2 -25 -2 -39q0 -130 103 -130q116 0 116 216q0 139 -71 174q-33 16 -134 19v230q114 0 157 33q50 38 50 148q0 153 -93 153q-90 0 -90 -153q0 -9 1 -28h-235q1 121 16 181q56 224 306 224q162 0 253 -96t91 -259q0 -248 -170 -326q211 -66 211 -327 q0 -187 -107 -294t-295 -107q-236 0 -326 186q-35 73 -35 195z" />
<glyph unicode="4" d="M59 321v211l362 833h295v-811h112v-233h-112v-321h-261v321h-396zM254 554h201v499z" />
<glyph unicode="5" d="M87 41l44 235q85 -65 169 -65q103 0 160 75q52 68 52 174q0 243 -273 243q-42 0 -108 -10l108 672h522v-232h-334l-36 -224q189 -19 279 -101q130 -119 130 -349q0 -226 -111 -350q-117 -131 -340 -131q-129 0 -262 63z" />
<glyph unicode="6" d="M66 458q0 272 184 654l122 253h259l-259 -536q91 75 171 75q111 0 189 -103q89 -118 89 -322q0 -206 -84 -341q-100 -160 -291 -160q-195 0 -295 148q-85 127 -85 332zM332 430q0 -71 21 -132q30 -86 87 -86q116 0 116 233q0 219 -107 220q-48 0 -78 -50 q-39 -66 -39 -185z" />
<glyph unicode="7" horiz-adv-x="888" d="M47 0l424 1130h-367v235h737l-513 -1365h-281z" />
<glyph unicode="8" d="M53 376q0 201 116 296q33 27 120 64q-66 29 -99 62q-87 87 -87 228q0 132 72 231q95 130 268 130q174 0 269 -130q72 -99 72 -231q0 -208 -186 -290q113 -46 158 -102q79 -98 79 -258q0 -175 -108.5 -286.5t-282.5 -111.5t-282.5 111.5t-108.5 286.5zM329 407 q0 -196 112 -196q60 0 91 71q24 55 24 124q0 68 -24 124q-31 73 -91 74q-61 1 -91 -73q-21 -52 -21 -124zM361 1029q0 -154 79 -154q78 0 78 153q0 145 -79 146q-78 0 -78 -145z" />
<glyph unicode="9" d="M66 886q0 206 84 341q100 160 291 160q195 0 295 -148q85 -127 85 -331q0 -167 -54 -338q-38 -121 -132 -317l-121 -253h-260l260 537q-91 -76 -171 -76q-111 0 -188 103q-89 118 -89 322zM331 920q0 -220 106 -220q65 0 95 92q21 63 21 143q0 71 -21 133q-29 85 -86 86 q-115 1 -115 -234z" />
<glyph unicode=":" horiz-adv-x="512" d="M83 150q0 74 50.5 123t125.5 49q71 0 120.5 -51t49.5 -122q0 -73 -50 -123t-123 -50t-123 50.5t-50 123.5zM83 767q0 73 50.5 122t124.5 49q72 0 121 -50t49 -122q0 -73 -50 -123t-123 -50q-74 0 -123 50t-49 124z" />
<glyph unicode=";" horiz-adv-x="512" d="M14 -261l181 555h272l-272 -555h-181zM123 767q0 73 50.5 122t124.5 49q72 0 121 -50t49 -122q0 -73 -49.5 -123t-122.5 -50t-123 50.5t-50 123.5z" />
<glyph unicode="&#x3c;" horiz-adv-x="1024" d="M68 588v218l887 450v-257l-613 -303l613 -303v-256z" />
<glyph unicode="=" horiz-adv-x="888" d="M68 410v223h751v-223h-751zM68 760v224h751v-224h-751z" />
<glyph unicode="&#x3e;" horiz-adv-x="1024" d="M68 136v257l613 303l-613 303v256l887 -451v-218z" />
<glyph unicode="?" horiz-adv-x="849" d="M61 987q3 176 56 255q96 142 290 142t297 -137q83 -111 83 -266q0 -211 -110 -315q-42 -40 -111 -63v-177h-266v336q25 -4 41 -4q155 0 155 214q0 176 -95 176q-87 0 -87 -131q0 -12 2 -30h-255zM261 151q0 73 50.5 122t124.5 49q72 0 121 -50t49 -122q0 -73 -50 -123 t-123 -50q-74 0 -123 50t-49 124z" />
<glyph unicode="@" horiz-adv-x="1393" d="M75 684q0 313 206 518q186 185 446 185q167 0 304.5 -81.5t215.5 -227.5q72 -135 72 -296q0 -253 -148 -405q-84 -86 -191 -86q-79 0 -135 86q-80 -90 -173 -90q-125 0 -194 127q-56 103 -56 239q0 180 94 300q81 103 201 103q69 0 135 -57l10 40h155l-53 -448 q-5 -42 -5 -83q0 -53 32 -53q16 0 31 10q46 31 72 86q48 101 48 218q0 253 -183 377q-103 70 -232 70q-206 0 -338 -167q-121 -154 -121 -366q0 -213 117 -362q133 -170 349 -170q211 0 391 107l78 -151q-6 -3 -32 -17q-208 -112 -418 -112q-409 0 -589 342q-89 169 -89 364 zM603 643q0 -58 17 -107q24 -68 72 -68q62 0 100 93q30 73 30 145q0 59 -20 106q-26 62 -77 63q-63 1 -97 -90q-25 -67 -25 -142z" />
<glyph unicode="A" horiz-adv-x="942" d="M7 0l318 1365h284l326 -1365h-286l-51 229h-273l-48 -229h-270zM367 439h191l-45 213q-36 172 -56 361q-13 -212 -50 -386z" />
<glyph unicode="B" horiz-adv-x="892" d="M106 0v1365h288q252 0 350 -182q50 -93 50 -201q0 -174 -146 -282q67 -38 102 -91q66 -101 66 -228q0 -144 -87 -247q-114 -134 -336 -134h-287zM376 233q70 1 111 34q63 51 63 144q0 178 -174 184v-362zM376 805q163 11 163 172q0 163 -163 165v-337z" />
<glyph unicode="C" horiz-adv-x="872" d="M75 691q0 311 194 513q169 176 393 176q69 0 142 -24v-249q-59 15 -104 15q-137 0 -222 -90q-119 -127 -119 -340q0 -206 116 -342q89 -105 222 -105q46 0 107 21v-258q-65 -23 -129 -23q-145 0 -271 71q-174 98 -263 303q-66 152 -66 332z" />
<glyph unicode="D" horiz-adv-x="999" d="M106 0v1365h227q133 0 209 -22q208 -60 309 -279q73 -158 73 -389q0 -305 -121 -476q-141 -199 -434 -199h-263zM376 249q104 2 168 67q108 111 108 361t-106 370q-64 72 -170 79v-877z" />
<glyph unicode="E" horiz-adv-x="728" d="M106 0v1365h543v-253h-273v-296h241v-258h-241v-307h276v-251h-546z" />
<glyph unicode="F" horiz-adv-x="713" d="M106 0v1365h545v-251h-275v-291h247v-261h-247v-562h-270z" />
<glyph unicode="G" horiz-adv-x="1074" d="M75 678q0 286 99 472q126 237 387 237q305 0 402 -325l-263 -102q-14 83 -31 119q-33 69 -107 69q-118 0 -167 -187q-30 -115 -30 -279q0 -460 201 -460q156 0 164 296h-172v242h440q1 -67 1 -107q0 -273 -83 -445q-111 -230 -354 -230q-252 0 -382 236 q-105 190 -105 464z" />
<glyph unicode="H" horiz-adv-x="1027" d="M106 0v1365h270v-534h274v534h270v-1365h-270v574h-274v-574h-270z" />
<glyph unicode="I" horiz-adv-x="483" d="M106 0v1365h270v-1365h-270z" />
<glyph unicode="J" horiz-adv-x="635" d="M0 20v270q64 -76 144 -76q75 0 100 71q14 40 14 134v946h270v-946q0 -217 -67 -312q-91 -129 -260 -129q-117 0 -201 42z" />
<glyph unicode="K" horiz-adv-x="926" d="M106 0v1365h270v-610l228 610h276l-253 -631l285 -734h-285l-251 694v-694h-270z" />
<glyph unicode="L" horiz-adv-x="673" d="M106 0v1365h270v-1108h283v-257h-553z" />
<glyph unicode="M" horiz-adv-x="1323" d="M55 0l120 1365h355l135 -807l108 807h363l143 -1365h-277l-67 983q-11 -151 -41 -316l-121 -667h-207l-126 619q-33 162 -53 364l-42 -983h-290z" />
<glyph unicode="N" horiz-adv-x="1059" d="M106 0v1365h256l336 -824q-21 95 -21 188v636h276v-1365h-255l-336 823q14 -106 14 -175v-648h-270z" />
<glyph unicode="O" horiz-adv-x="1110" d="M75 683q0 283 97 467q124 235 382 237h3q147 0 266 -98q113 -93 162.5 -240t49.5 -377q0 -489 -279 -641q-97 -53 -201 -53q-148 0 -274 103q-206 169 -206 602zM363 688q0 -451 192 -451t192 445q0 456 -192 457h-1q-191 0 -191 -451z" />
<glyph unicode="P" horiz-adv-x="890" d="M106 0v1365h327q279 0 372 -202q43 -93 43 -202q0 -156 -82 -263q-108 -140 -329 -140q-27 0 -61 4v-562h-270zM376 788h7q91 0 131 25q66 42 66 149q0 186 -158 186q-13 0 -46 -1v-359z" />
<glyph unicode="Q" horiz-adv-x="1125" d="M75 688q0 317 113 494q59 92 158 148.5t207 56.5q151 0 277 -106q206 -173 206 -603q0 -306 -102 -477l116 -119l-141 -134l-104 113q-115 -83 -243 -83q-147 0 -275 101q-212 168 -212 609zM364 695q0 -278 74 -385q51 -73 119 -73q29 0 62 18l-160 164l139 136 l124 -136q25 115 25 240q0 290 -68 396q-54 85 -125 85q-190 0 -190 -445z" />
<glyph unicode="R" horiz-adv-x="969" d="M106 0v1365h294q161 0 253 -41q116 -52 170 -181q34 -82 34 -175q0 -227 -195 -347l238 -621h-284l-240 629v-629h-270zM376 779q28 -3 45 -3q174 0 174 188q0 135 -83 174q-30 14 -136 14v-373z" />
<glyph unicode="S" horiz-adv-x="800" d="M74 983q0 178 104 298q92 106 252 106q120 0 240 -67v-263q-106 87 -197 87q-60 0 -97 -36.5t-37 -96.5q0 -97 145 -206q98 -74 110 -84q61 -51 94 -101q62 -93 62 -221t-54 -229q-60 -113 -170 -159q-79 -33 -165 -33q-134 0 -236 69v258q108 -73 201 -73 q71 0 115.5 40.5t44.5 110.5q0 67 -52 117q-16 15 -109 79q-104 72 -160 137q-91 107 -91 267z" />
<glyph unicode="T" horiz-adv-x="695" d="M0 1115v250h695v-250h-213v-1115h-270v1115h-212z" />
<glyph unicode="U" horiz-adv-x="1021" d="M106 386v979h270v-906q0 -135 26 -179q34 -58 109 -58q98 0 123 85q10 34 10 152v906h270v-1018q0 -136 -45 -209q-98 -160 -360 -160q-365 0 -400 308q-3 26 -3 100z" />
<glyph unicode="V" horiz-adv-x="995" d="M0 1365h291l144 -527q37 -134 48 -208q6 -46 21 -164l4 41q20 210 55 331l150 527h282l-379 -1365h-220z" />
<glyph unicode="W" horiz-adv-x="1421" d="M7 1365h276l110 -598q19 -101 23 -153q3 -34 9 -142q1 -10 4 -49q20 178 51 329l127 613h213l139 -685q28 -137 38 -257q2 202 37 397l98 545h283l-283 -1365h-235l-121 521q-43 185 -59 449q-11 -189 -70 -434l-129 -536h-235z" />
<glyph unicode="X" horiz-adv-x="906" d="M0 0l289 704l-289 661h303l72 -176q64 -157 70 -224q11 76 66 206l82 194h291l-291 -661l313 -704h-313l-83 211q-58 147 -65 211q-21 -106 -69 -232l-73 -190h-303z" />
<glyph unicode="Y" horiz-adv-x="915" d="M0 1365h297l136 -358q6 -16 26 -80q14 53 24 80l130 358h301l-317 -712v-653h-270v653z" />
<glyph unicode="Z" horiz-adv-x="933" d="M37 0l456 1108h-398v257h802l-467 -1108h429v-257h-822z" />
<glyph unicode="[" horiz-adv-x="751" d="M137 -375v1836h543v-253h-271v-1332h274v-251h-546z" />
<glyph unicode="\" horiz-adv-x="949" d="M10 1461h222l742 -1836h-230z" />
<glyph unicode="]" horiz-adv-x="751" d="M68 1210v251h546v-1836h-543v253h271v1332h-274z" />
<glyph unicode="^" horiz-adv-x="1024" d="M12 689l330 684h340l331 -684h-272l-229 477l-229 -477h-271z" />
<glyph unicode="_" horiz-adv-x="1024" d="M0 -96h1024v-233h-1024v233z" />
<glyph unicode="`" horiz-adv-x="1024" d="M251 1309l184 84l175 -261l-125 -73z" />
<glyph unicode="a" horiz-adv-x="811" d="M54 461q0 178 41 295q62 177 205 177q110 0 172 -131v113h257v-915h-257v104q-67 -122 -168 -122q-103 0 -167 103q-83 134 -83 376zM313 458q0 -247 91 -247q87 0 87 244q0 248 -87 249h-1q-90 0 -90 -246z" />
<glyph unicode="b" horiz-adv-x="811" d="M82 0v1461h257v-659q62 131 172 131q143 0 205 -177q41 -117 41 -295q0 -242 -83 -376q-64 -103 -167 -103q-101 0 -168 122v-104h-257zM320 460q0 -249 87 -249q91 0 91 247q0 245 -91 246h-1q-86 0 -86 -244z" />
<glyph unicode="c" horiz-adv-x="576" d="M55 447q0 220 100 362q87 124 252 124q63 0 129 -26v-224q-33 29 -73 29q-149 0 -149 -246q0 -245 144 -245q37 0 78 27v-234q-78 -32 -147 -32q-128 0 -210 90q-124 135 -124 375z" />
<glyph unicode="d" horiz-adv-x="811" d="M54 461q0 178 41 295q62 177 205 177q110 0 172 -131v659h257v-1461h-257v104q-67 -122 -168 -122q-103 0 -167 103q-83 134 -83 376zM313 458q0 -247 91 -247q87 0 87 244q0 248 -87 249h-1q-90 0 -90 -246z" />
<glyph unicode="e" horiz-adv-x="763" d="M55 436q0 246 107 382q91 115 233 115q169 0 250 -142q65 -114 65 -296q0 -42 -6 -106h-404q2 -95 15 -141q21 -75 83 -75q76 0 80 110h217q-37 -204 -144 -264q-66 -37 -150 -37q-179 0 -270 144q-76 120 -76 310zM303 572q0 -6 1 -26h185v26q0 166 -93 166t-93 -166z " />
<glyph unicode="f" horiz-adv-x="493" d="M16 703v212h94v278q0 89 12 127q31 98 130 138q60 24 121 24q47 0 110 -22v-244q-28 13 -45 13q-71 0 -71 -129v-185h116v-212h-116v-703h-257v703h-94z" />
<glyph unicode="g" horiz-adv-x="821" d="M54 447q0 245 76 382q58 104 168 104t184 -129v111h257v-995q0 -163 -60 -245q-96 -130 -291 -130q-298 0 -325 333h225q12 -125 94 -125q69 0 90 84q10 40 10 138v140q-42 -68 -69 -93q-43 -40 -104 -40q-96 0 -160 91q-95 134 -95 374zM314 460q0 -244 91 -244 q88 0 88 242q0 245 -88 246h-1q-90 0 -90 -244z" />
<glyph unicode="h" horiz-adv-x="807" d="M82 0v1461h257v-689q32 65 61 94q66 67 156 67q105 0 142 -84q27 -61 27 -237v-612h-257v522q0 74 -4 95q-11 59 -57 59q-45 0 -60 -48q-8 -25 -8 -106v-522h-257z" />
<glyph unicode="i" horiz-adv-x="422" d="M53 1187q0 69 47.5 115t117.5 46q67 0 113.5 -47t46.5 -115t-47.5 -115.5t-114.5 -47.5q-68 0 -115.5 48t-47.5 116zM82 0v915h257v-915h-257z" />
<glyph unicode="j" horiz-adv-x="422" d="M53 1187q0 69 47.5 115t117.5 46q67 0 113.5 -47.5t46.5 -114.5q0 -68 -47.5 -115.5t-114.5 -47.5q-68 0 -115.5 48t-47.5 116zM82 -451v1366h257v-1366h-257z" />
<glyph unicode="k" horiz-adv-x="796" d="M82 0v1461h257v-867l143 321h275l-206 -374l252 -541h-280l-184 424v-424h-257z" />
<glyph unicode="l" horiz-adv-x="421" d="M82 0v1461h257v-1461h-257z" />
<glyph unicode="m" horiz-adv-x="1192" d="M82 0v915h257v-147q93 165 226 165q125 0 160 -157q86 157 216 157q102 0 142 -85q27 -57 27 -194v-654h-257v518q0 71 -5 97q-12 63 -57 63q-39 0 -57 -41q-9 -20 -9 -119v-518h-257v535q0 68 -4 86q-12 53 -54 53q-50 0 -65 -51q-6 -21 -6 -88v-535h-257z" />
<glyph unicode="n" horiz-adv-x="807" d="M82 0v915h257v-143q32 65 61 94q66 67 156 67q105 0 142 -84q27 -61 27 -237v-612h-257v522q0 74 -4 95q-11 59 -57 59q-45 0 -60 -48q-8 -25 -8 -106v-522h-257z" />
<glyph unicode="o" horiz-adv-x="803" d="M55 458q0 197 74 321q90 152 274 154h5q185 0 272 -155q69 -123 69 -327q0 -198 -72 -319q-88 -150 -273 -150q-247 0 -322 271q-27 97 -27 205zM314 458q0 -246 90 -246q86 0 86 243q0 247 -86 248h-1q-89 0 -89 -245z" />
<glyph unicode="p" horiz-adv-x="811" d="M82 -451v1366h257v-113q62 131 172 131q143 0 205 -177q41 -117 41 -295q0 -242 -83 -376q-64 -103 -167 -103q-101 0 -168 122v-555h-257zM320 460q0 -249 87 -249q91 0 91 247q0 245 -91 246h-1q-86 0 -86 -244z" />
<glyph unicode="q" horiz-adv-x="811" d="M54 461q0 178 41 295q62 177 205 177q109 0 172 -131v113h257v-1366h-257v555q-67 -122 -168 -122q-103 0 -167 103q-83 134 -83 376zM313 458q0 -247 91 -247q87 0 87 244q0 248 -87 249h-1q-90 0 -90 -246z" />
<glyph unicode="r" horiz-adv-x="569" d="M82 0v915h257v-111q87 127 210 145v-248q-22 4 -38 4q-133 0 -161 -95q-11 -37 -11 -132v-478h-257z" />
<glyph unicode="s" horiz-adv-x="645" d="M42 86l113 182q69 -57 126 -57q81 0 81 75q0 47 -84 91q-112 59 -153 106q-61 71 -61 178q0 127 91 202q84 70 214 70t244 -79l-103 -187q-66 63 -120 63q-67 0 -67 -66q0 -43 98 -93q189 -96 189 -271q0 -138 -75 -225q-79 -93 -214 -93q-144 0 -279 104z" />
<glyph unicode="t" horiz-adv-x="471" d="M19 703v212h87v252h257v-252h104v-212h-104v-703h-257v703h-87z" />
<glyph unicode="u" horiz-adv-x="804" d="M82 344v571h257v-524q0 -111 10 -134q16 -37 53 -37q48 0 60 67q3 17 3 104v524h257v-607q0 -120 -42 -185q-91 -141 -281 -141q-118 0 -205 63q-95 67 -109 180q-3 24 -3 119z" />
<glyph unicode="v" horiz-adv-x="750" d="M-7 915h253l100 -405q13 -52 24 -113q7 29 27 113l95 405h265l-265 -915h-236z" />
<glyph unicode="w" horiz-adv-x="1187" d="M-7 915h248l77 -302q35 -139 48 -235l120 537h220l76 -326q28 -120 42 -211q7 47 27 127l100 410h243l-253 -915h-210l-78 288q-43 160 -62 286q-15 -136 -49 -270l-77 -304h-213z" />
<glyph unicode="x" horiz-adv-x="789" d="M-7 0l264 493l-229 422h264q24 -42 88 -170l12 -26l104 196h263l-233 -422l270 -493h-270l-134 252l-135 -252h-264z" />
<glyph unicode="y" horiz-adv-x="750" d="M-7 915h256l105 -407q15 -59 24 -115l121 522h257l-393 -1366h-250l147 470z" />
<glyph unicode="z" horiz-adv-x="698" d="M27 0l291 702h-261v213h614l-283 -703h252v-212h-613z" />
<glyph unicode="{" horiz-adv-x="751" d="M124 444v216q112 24 112 158v356q0 161 76 230q72 64 235 64q25 0 56 -1l92 -3v-225h-38q-99 0 -130 -19q-36 -22 -36 -125v-296q0 -97 -22 -148q-26 -58 -101 -109q72 -46 100 -110q23 -54 23 -147v-295q0 -107 40 -128q32 -17 124 -17q12 0 39 1v-225l-151 -4 q-161 0 -234 68.5t-73 227.5v354q0 155 -112 177z" />
<glyph unicode="|" horiz-adv-x="1024" d="M382 -341v1706h259v-1706h-259z" />
<glyph unicode="}" horiz-adv-x="751" d="M56 -154h37q100 0 130 18q36 22 36 126v296q0 98 22 148q26 57 101 109q-72 46 -100 110q-23 54 -23 147v295q0 108 -40 129q-31 16 -124 16q-11 0 -39 -1v225l151 4q161 0 233 -66q74 -69 74 -229v-354q0 -154 113 -178v-216q-59 -11 -86 -48q-19 -26 -27 -110v-356 q0 -161 -76 -229q-72 -64 -235 -64q-25 0 -73.5 1.5t-73.5 1.5v225z" />
<glyph unicode="~" horiz-adv-x="1365" d="M185 1243q1 3 16 35q34 76 52 105q84 141 239 141q68 0 215 -55q131 -49 179 -49q86 0 149 108l146 -85q-60 -127 -122 -188q-84 -82 -202 -82q-55 0 -206 55q-135 49 -173 49q-53 0 -92 -34q-21 -18 -60 -92z" />
<glyph unicode="&#xa3;" horiz-adv-x="888" d="M19 508v139h157q-3 47 -15 105q-29 139 -29 218q0 189 102 297t290 108q343 0 345 -407h-231q1 21 1 32q0 154 -104 154q-65 0 -99 -56q-29 -47 -29 -116q0 -66 19 -219q9 -72 10 -116h230v-139h-236q-9 -150 -84 -287q24 1 39 1q46 0 137.5 -17t137.5 -17q104 0 200 45 v-214q-72 -39 -166 -39q-76 0 -230 30q-113 22 -193 22q-86 0 -191 -32v205q110 116 109 303h-170z" />
<glyph unicode="&#xa8;" horiz-adv-x="1024" d="M194 1215q0 57 40 95.5t97 38.5q55 0 94 -40t39 -95q0 -56 -39.5 -95.5t-95.5 -39.5q-57 0 -96 39.5t-39 96.5zM560 1215q0 57 40 95.5t97 38.5q55 0 94 -40t39 -95q0 -56 -39.5 -95.5t-95.5 -39.5q-57 0 -96 39.5t-39 96.5z" />
<glyph unicode="&#xa9;" horiz-adv-x="1560" d="M70 682q0 206 103.5 374.5t287.5 261.5q153 77 330 77q197 0 364 -105.5t257 -283.5q78 -154 78 -324q0 -202 -103 -371.5t-282 -261.5q-153 -79 -323 -79q-203 0 -371.5 103t-261.5 284q-79 154 -79 325zM208 682q0 -165 84.5 -307t230.5 -218q121 -63 258 -63 q244 0 409 173q162 169 162 415q0 167 -82 307t-228 218q-118 63 -253 64q-247 3 -414 -169t-167 -420zM457 688q0 186 127 308q111 106 256 106q47 0 100 -17v-163q-44 11 -74 11q-85 0 -138 -51q-73 -70 -73 -193q0 -120 72 -196q56 -59 136 -59q32 0 77 15v-169 q-47 -15 -91 -15q-176 0 -286 125q-106 120 -106 298z" />
<glyph unicode="&#xab;" horiz-adv-x="811" d="M61 479l236 422l138 -70l-185 -352l185 -343l-138 -77zM375 479l236 422l138 -70l-185 -352l185 -343l-138 -77z" />
<glyph unicode="&#xad;" horiz-adv-x="344" d="M0 452v242h344v-242h-344z" />
<glyph unicode="&#xae;" horiz-adv-x="1560" d="M70 682q0 206 103.5 374.5t287.5 261.5q153 77 330 77q197 0 364 -105.5t257 -283.5q78 -154 78 -324q0 -202 -103 -371.5t-282 -261.5q-153 -79 -323 -79q-203 0 -371.5 103t-261.5 284q-79 154 -79 325zM208 682q0 -165 84.5 -307t230.5 -218q121 -63 258 -63 q244 0 409 173q162 169 162 415q0 167 -82 307t-228 218q-118 63 -253 64q-247 3 -414 -169t-167 -420zM519 273v819h199q204 0 268 -123q28 -54 28 -118q0 -135 -123 -205l150 -373h-195l-143 364v-364h-184zM703 739q16 -1 28 -1q101 0 101 110q0 75 -49 97q-18 8 -80 8 v-214z" />
<glyph unicode="&#xb4;" horiz-adv-x="1024" d="M415 1132l174 261l185 -84l-234 -250z" />
<glyph unicode="&#xb8;" horiz-adv-x="1024" d="M377 -336l141 249l163 -64l-190 -243z" />
<glyph unicode="&#xbb;" horiz-adv-x="811" d="M61 136l185 343l-185 352l138 70l236 -422l-236 -420zM375 136l185 343l-185 352l138 70l236 -422l-236 -420z" />
<glyph unicode="&#xd3;" horiz-adv-x="1110" d="M75 683q0 283 97 467q124 235 382 237q149 1 269 -98q113 -93 162.5 -240t49.5 -377q0 -489 -279 -641q-97 -53 -201 -53q-148 0 -274 103q-206 169 -206 602zM363 688q0 -451 192 -451t192 445q0 456 -192 457t-192 -451zM433 1585l238 185l144 -131l-291 -156z" />
<glyph unicode="&#xf3;" horiz-adv-x="803" d="M55 458q0 197 74 321q90 152 274 154q189 2 277 -155q69 -123 69 -327q0 -198 -72 -319q-88 -150 -273 -150q-247 0 -322 271q-27 97 -27 205zM292 1132l174 261l185 -84l-234 -250zM314 458q0 -246 90 -246q86 0 86 243q0 247 -86 248q-90 1 -90 -245z" />
<glyph unicode="&#x104;" horiz-adv-x="942" d="M7 0l318 1365h284l326 -1365q-114 -79 -114 -151q0 -35 24.5 -58t59.5 -23q34 0 68 33l-29 -145q-41 -34 -102 -34q-70 0 -122 43q-56 45 -56 114q0 122 152 221h-167l-51 229h-273l-48 -229h-270zM367 439h191l-45 213q-36 171 -56 360q-13 -213 -50 -386z" />
<glyph unicode="&#x105;" horiz-adv-x="811" d="M54 461q0 178 41 295q62 177 205 177q110 0 172 -131v113h257v-915q-115 -79 -115 -151q0 -34 24.5 -57.5t58.5 -23.5q33 0 63 33l-29 -145q-38 -34 -97 -34q-70 0 -122 43q-55 45 -55 114q0 123 153 221h-138v104q-67 -122 -168 -122q-104 0 -167 102q-83 134 -83 377z M313 457q0 -246 91 -246q87 0 87 244q0 248 -87 249q-91 1 -91 -247z" />
<glyph unicode="&#x106;" horiz-adv-x="872" d="M75 691q0 311 194 513q169 176 393 176q69 0 142 -24v-249q-59 15 -104 15q-137 0 -222 -90q-119 -127 -119 -340q0 -206 116 -342q89 -105 222 -105q46 0 107 21v-258q-65 -23 -129 -23q-145 0 -271 71q-174 98 -263 303q-66 152 -66 332zM478 1585l238 185l144 -131 l-291 -156z" />
<glyph unicode="&#x107;" horiz-adv-x="576" d="M55 447q0 220 100 362q87 124 252 124q63 0 129 -26v-224q-33 29 -73 29q-149 0 -149 -246q0 -245 144 -245q37 0 78 27v-234q-78 -32 -147 -32q-128 0 -210 90q-124 135 -124 375zM267 1132l174 261l185 -84l-234 -250z" />
<glyph unicode="&#x118;" horiz-adv-x="728" d="M106 0v1365h543v-253h-273v-296h241v-258h-241v-307h276v-251q-115 -80 -115 -151q0 -35 24.5 -58t59.5 -23q34 0 69 33l-29 -145q-43 -34 -102 -34q-71 0 -123 43q-56 45 -56 114q0 123 153 221h-427z" />
<glyph unicode="&#x119;" horiz-adv-x="763" d="M55 436q0 246 107 382q91 115 233 115q169 0 250 -142q65 -114 65 -296q0 -42 -6 -106h-404q2 -95 15 -141q21 -75 83 -75q76 0 80 110h217q-20 -110 -49 -164q-13 -24 -111 -135q-79 -89 -79 -135q0 -34 24.5 -57.5t58.5 -23.5q32 0 62 33l-29 -145q-38 -34 -96 -34 q-71 0 -122 43q-55 45 -55 115q0 123 137 208q-38 -3 -56 -3q-105 0 -190 75q-135 120 -135 376zM303 572q0 -6 1 -26h185v26q0 166 -93 166t-93 -166z" />
<glyph unicode="&#x141;" horiz-adv-x="673" d="M0 346v230l106 89v700h270v-546l243 189v-230l-243 -190v-331h283v-257h-553v435z" />
<glyph unicode="&#x142;" horiz-adv-x="421" d="M-17 491v203l99 88v679h257v-536l99 88v-203l-99 -88v-722h-257v579z" />
<glyph unicode="&#x143;" horiz-adv-x="1059" d="M106 0v1365h256l336 -824q-21 95 -21 188v636h276v-1365h-255l-336 823q14 -106 14 -175v-648h-270zM408 1585l238 185l144 -131l-291 -156z" />
<glyph unicode="&#x144;" horiz-adv-x="807" d="M82 0v915h257v-143q32 65 61 94q66 67 156 67q105 0 142 -84q27 -61 27 -237v-612h-257v522q0 74 -4 95q-11 59 -57 59q-45 0 -60 -48q-8 -25 -8 -106v-522h-257zM294 1132l174 261l185 -84l-234 -250z" />
<glyph unicode="&#x15a;" horiz-adv-x="800" d="M74 983q0 178 104 298q92 106 252 106q120 0 240 -67v-263q-106 87 -197 87q-60 0 -97 -36.5t-37 -96.5q0 -97 145 -206q98 -74 110 -84q61 -51 94 -101q62 -93 62 -221t-54 -229q-60 -113 -170 -159q-79 -33 -165 -33q-134 0 -236 69v258q108 -73 201 -73 q71 0 115.5 40.5t44.5 110.5q0 67 -52 117q-16 15 -109 79q-104 72 -160 137q-91 107 -91 267zM299 1585l238 185l144 -131l-291 -156z" />
<glyph unicode="&#x15b;" horiz-adv-x="645" d="M42 86l113 182q69 -57 126 -57q81 0 81 75q0 47 -84 91q-112 59 -153 106q-61 71 -61 178q0 127 91 202q84 70 214 70t244 -79l-103 -187q-66 63 -120 63q-67 0 -67 -66q0 -43 98 -93q189 -96 189 -271q0 -138 -75 -225q-79 -93 -214 -93q-144 0 -279 104zM240 1132 l174 261l185 -84l-234 -250z" />
<glyph unicode="&#x179;" horiz-adv-x="933" d="M37 0l456 1108h-398v257h802l-467 -1108h429v-257h-822zM372 1585l238 185l144 -131l-291 -156z" />
<glyph unicode="&#x17a;" horiz-adv-x="698" d="M27 0l291 702h-261v213h614l-283 -703h252v-212h-613zM251 1132l174 261l185 -84l-234 -250z" />
<glyph unicode="&#x17b;" horiz-adv-x="933" d="M37 0l456 1108h-398v257h802l-467 -1108h429v-257h-822zM354 1628q0 61 42 101.5t104 40.5q58 0 99.5 -42.5t41.5 -100.5q0 -60 -42 -102t-102 -42t-101.5 42.5t-41.5 102.5z" />
<glyph unicode="&#x17c;" horiz-adv-x="698" d="M27 0l291 702h-261v213h614l-283 -703h252v-212h-613zM228 1216q0 57 40.5 96t97.5 39q56 0 95 -40t39 -96t-40 -96t-96 -40q-57 0 -96.5 40t-39.5 97z" />
<glyph unicode="&#x2000;" horiz-adv-x="885" />
<glyph unicode="&#x2001;" horiz-adv-x="1770" />
<glyph unicode="&#x2002;" horiz-adv-x="885" />
<glyph unicode="&#x2003;" horiz-adv-x="1770" />
<glyph unicode="&#x2004;" horiz-adv-x="590" />
<glyph unicode="&#x2005;" horiz-adv-x="442" />
<glyph unicode="&#x2006;" horiz-adv-x="295" />
<glyph unicode="&#x2007;" horiz-adv-x="295" />
<glyph unicode="&#x2008;" horiz-adv-x="221" />
<glyph unicode="&#x2009;" horiz-adv-x="354" />
<glyph unicode="&#x200a;" horiz-adv-x="98" />
<glyph unicode="&#x2010;" horiz-adv-x="344" d="M0 452v242h344v-242h-344z" />
<glyph unicode="&#x2011;" horiz-adv-x="344" d="M0 452v242h344v-242h-344z" />
<glyph unicode="&#x2012;" horiz-adv-x="344" d="M0 452v242h344v-242h-344z" />
<glyph unicode="&#x2013;" horiz-adv-x="886" d="M122 453v239h642v-239h-642z" />
<glyph unicode="&#x2014;" horiz-adv-x="1027" d="M0 453v239h1027v-239h-1027z" />
<glyph unicode="&#x2018;" horiz-adv-x="562" d="M61 989l272 554h181l-181 -554h-272z" />
<glyph unicode="&#x2019;" horiz-adv-x="562" d="M61 907l181 554h272l-272 -554h-181z" />
<glyph unicode="&#x201a;" horiz-adv-x="512" d="M14 -261l181 555h272l-272 -555h-181z" />
<glyph unicode="&#x201c;" horiz-adv-x="904" d="M61 989l272 554h181l-181 -554h-272zM403 989l272 554h180l-180 -554h-272z" />
<glyph unicode="&#x201d;" horiz-adv-x="904" d="M61 907l181 554h272l-272 -554h-181zM403 907l180 554h272l-272 -554h-180z" />
<glyph unicode="&#x201e;" horiz-adv-x="890" d="M48 -261l181 555h272l-272 -555h-181zM390 -261l180 555h272l-272 -555h-180z" />
<glyph unicode="&#x2026;" horiz-adv-x="1536" d="M95 162q0 69 47 114.5t117 45.5q66 0 112 -47t46 -114q0 -68 -46.5 -114.5t-114.5 -46.5t-114.5 47t-46.5 115zM607 162q0 69 47 114.5t117 45.5q66 0 112 -47t46 -114q0 -68 -46.5 -114.5t-114.5 -46.5t-114.5 47t-46.5 115zM1119 162q0 69 47 114.5t117 45.5 q66 0 112 -47t46 -114q0 -68 -46.5 -114.5t-114.5 -46.5t-114.5 47t-46.5 115z" />
<glyph unicode="&#x202f;" horiz-adv-x="354" />
<glyph unicode="&#x2039;" horiz-adv-x="497" d="M61 479l236 422l138 -70l-185 -352l185 -343l-138 -77z" />
<glyph unicode="&#x203a;" horiz-adv-x="497" d="M61 136l185 343l-185 352l138 70l236 -422l-236 -420z" />
<glyph unicode="&#x205f;" horiz-adv-x="442" />
<glyph unicode="&#x2122;" horiz-adv-x="1232" d="M-7 1211v154h439v-154h-131v-624h-179v624h-129zM450 587l75 778h229l76 -415l61 415h233l89 -778h-183l-35 471l-93 -471h-137l-102 462l-21 -462h-192z" />
<glyph unicode="&#x25fc;" horiz-adv-x="915" d="M0 0v915h915v-915h-915z" />
</font>
</defs>
</svg>
